<svg xmlns="http://www.w3.org/2000/svg" xmlns:xlink="http://www.w3.org/1999/xlink" width="500" zoomAndPan="magnify" viewBox="0 0 375 374.999991" height="500" preserveAspectRatio="xMidYMid meet" version="1.0"><defs><clipPath id="939cb2581f"><path d="M 267 53 L 374.085938 53 L 374.085938 175 L 267 175 Z M 267 53 " clip-rule="nonzero"/></clipPath></defs><path fill="#000000" d="M 359.148438 279.363281 L 141.988281 249.136719 C 136.535156 248.441406 132.449219 243.796875 132.449219 238.296875 L 129.472656 86.691406 C 129.472656 86.691406 134.421875 83.121094 137.226562 81.75 C 138.65625 81.054688 140.296875 80.75 142.007812 80.96875 L 358.523438 108.605469 C 363.972656 109.296875 368.058594 113.941406 368.058594 119.445312 L 368.058594 268.347656 C 368.058594 271.011719 366.84375 273.359375 364.960938 274.910156 C 363.226562 276.335938 359.148438 279.363281 359.148438 279.363281 " fill-opacity="1" fill-rule="nonzero"/><path fill="#ffffff" d="M 352.519531 281.378906 L 136.007812 253.742188 C 130.554688 253.046875 126.46875 248.402344 126.46875 242.902344 L 126.46875 94 C 126.46875 88.878906 130.957031 84.925781 136.027344 85.574219 L 352.539062 113.210938 C 357.992188 113.90625 362.078125 118.550781 362.078125 124.050781 L 362.078125 272.953125 C 362.078125 278.070312 357.589844 282.027344 352.519531 281.378906 " fill-opacity="1" fill-rule="nonzero"/><path fill="#000000" d="M 352.578125 280.921875 C 354.863281 281.210938 357.164062 280.503906 358.894531 278.980469 C 360.625 277.457031 361.617188 275.261719 361.617188 272.953125 L 361.617188 124.050781 C 361.617188 118.796875 357.6875 114.332031 352.484375 113.667969 L 135.96875 86.03125 C 133.683594 85.742188 131.378906 86.445312 129.652344 87.96875 C 127.921875 89.496094 126.929688 91.691406 126.929688 93.996094 L 126.929688 242.902344 C 126.929688 248.15625 130.855469 252.621094 136.066406 253.285156 Z M 353.589844 281.90625 C 353.21875 281.90625 352.835938 281.882812 352.460938 281.835938 L 135.949219 254.199219 C 130.28125 253.476562 126.007812 248.617188 126.007812 242.902344 L 126.007812 93.996094 C 126.007812 91.425781 127.113281 88.976562 129.042969 87.277344 C 130.96875 85.582031 133.535156 84.792969 136.085938 85.113281 L 352.597656 112.75 C 358.265625 113.472656 362.539062 118.332031 362.539062 124.050781 L 362.539062 272.953125 C 362.539062 275.523438 361.433594 277.972656 359.503906 279.675781 C 357.863281 281.121094 355.757812 281.90625 353.589844 281.90625 " fill-opacity="1" fill-rule="nonzero"/><path fill="#000000" d="M 343.179688 112.476562 C 343.160156 112.476562 343.140625 112.476562 343.121094 112.472656 L 157.363281 88.761719 C 157.113281 88.730469 156.933594 88.5 156.964844 88.246094 C 157 87.992188 157.230469 87.816406 157.484375 87.847656 L 343.238281 111.558594 C 343.492188 111.589844 343.667969 111.820312 343.640625 112.074219 C 343.609375 112.308594 343.410156 112.476562 343.179688 112.476562 " fill-opacity="1" fill-rule="nonzero"/><path fill="#ffffff" d="M 347.917969 275.242188 L 141.179688 248.851562 C 137.214844 248.347656 134.246094 244.96875 134.246094 240.96875 L 134.246094 97.335938 C 134.246094 93.917969 137.242188 91.277344 140.628906 91.710938 L 347.367188 118.097656 C 351.332031 118.605469 354.304688 121.980469 354.304688 125.980469 L 354.304688 269.613281 C 354.304688 273.03125 351.304688 275.671875 347.917969 275.242188 " fill-opacity="1" fill-rule="nonzero"/><path fill="#000000" d="M 139.910156 92.128906 C 138.652344 92.128906 137.425781 92.585938 136.472656 93.425781 C 135.347656 94.414062 134.707031 95.84375 134.707031 97.335938 L 134.707031 240.96875 C 134.707031 244.726562 137.515625 247.917969 141.238281 248.394531 L 347.972656 274.78125 C 349.460938 274.972656 350.953125 274.511719 352.074219 273.523438 C 353.195312 272.535156 353.839844 271.109375 353.839844 269.613281 L 353.839844 125.984375 C 353.839844 122.226562 351.03125 119.035156 347.304688 118.554688 L 140.570312 92.171875 C 140.351562 92.140625 140.132812 92.128906 139.910156 92.128906 Z M 348.632812 275.746094 C 348.375 275.746094 348.117188 275.730469 347.859375 275.699219 L 141.121094 249.308594 C 136.9375 248.777344 133.785156 245.191406 133.785156 240.96875 L 133.785156 97.335938 C 133.785156 95.578125 134.542969 93.898438 135.863281 92.734375 C 137.179688 91.570312 138.941406 91.03125 140.6875 91.253906 L 347.425781 117.640625 C 351.605469 118.175781 354.761719 121.761719 354.761719 125.984375 L 354.761719 269.613281 C 354.761719 271.375 354.003906 273.054688 352.683594 274.21875 C 351.558594 275.207031 350.113281 275.746094 348.632812 275.746094 " fill-opacity="1" fill-rule="nonzero"/><path fill="#000000" d="M 362.132812 289.378906 L 361.78125 288.546875 C 361.257812 287.320312 360.125 286.460938 358.796875 286.289062 L 138.933594 257.902344 C 132.195312 257.039062 124.5625 258.34375 118.664062 261.714844 L 1.632812 329.164062 L 1.625 337.515625 C 1.625 338.855469 2.621094 339.988281 3.949219 340.160156 L 226.207031 369.070312 C 232.945312 369.9375 239.78125 368.578125 245.683594 365.207031 L 360.464844 299.519531 C 361.597656 298.871094 362.082031 297.753906 362.023438 296.675781 C 361.945312 295.292969 362.132812 289.378906 362.132812 289.378906 " fill-opacity="1" fill-rule="nonzero"/><path fill="#ffffff" d="M 226.207031 361.175781 L 4.328125 332.488281 C 1.382812 332.113281 0.609375 328.203125 3.1875 326.726562 L 117.355469 261.464844 C 123.253906 258.09375 130.089844 256.734375 136.828125 257.597656 L 358.707031 286.285156 C 361.652344 286.664062 362.425781 290.574219 359.847656 292.046875 L 245.679688 357.3125 C 239.78125 360.683594 232.945312 362.039062 226.207031 361.175781 " fill-opacity="1" fill-rule="nonzero"/><path fill="#000000" d="M 226.261719 360.71875 C 232.863281 361.566406 239.671875 360.210938 245.449219 356.910156 L 359.617188 291.648438 C 360.832031 290.953125 361.074219 289.746094 360.894531 288.847656 C 360.71875 287.945312 360.035156 286.921875 358.644531 286.746094 L 136.769531 258.058594 C 130.171875 257.210938 123.359375 258.5625 117.582031 261.867188 L 3.414062 327.128906 C 2.203125 327.824219 1.960938 329.03125 2.136719 329.929688 C 2.316406 330.828125 3 331.855469 4.386719 332.03125 Z M 230.125 361.886719 C 228.796875 361.886719 227.46875 361.804688 226.148438 361.632812 L 4.269531 332.945312 C 2.726562 332.75 1.535156 331.636719 1.234375 330.109375 C 0.929688 328.582031 1.609375 327.097656 2.957031 326.328125 L 117.125 261.066406 C 123.074219 257.664062 130.09375 256.273438 136.886719 257.140625 L 358.765625 285.828125 C 360.304688 286.027344 361.496094 287.140625 361.800781 288.667969 C 362.101562 290.191406 361.421875 291.675781 360.074219 292.449219 L 245.90625 357.710938 C 241.117188 360.453125 235.632812 361.886719 230.125 361.886719 " fill-opacity="1" fill-rule="nonzero"/><path fill="#ffffff" d="M 269.644531 324.949219 L 77.25 299.894531 C 74.589844 299.550781 73.890625 296.019531 76.21875 294.6875 L 121.457031 269.089844 C 126.785156 266.042969 132.960938 264.820312 139.042969 265.597656 L 331.445312 290.65625 C 334.105469 290.996094 334.800781 294.527344 332.476562 295.859375 L 287.238281 321.460938 C 281.90625 324.503906 275.730469 325.730469 269.644531 324.949219 " fill-opacity="1" fill-rule="nonzero"/><path fill="#000000" d="M 269.707031 324.492188 C 275.65625 325.253906 281.800781 324.035156 287.011719 321.058594 L 332.25 295.457031 C 333.324219 294.84375 333.535156 293.773438 333.378906 292.976562 C 333.222656 292.179688 332.613281 291.269531 331.386719 291.113281 L 138.988281 266.054688 C 133.039062 265.292969 126.894531 266.511719 121.6875 269.488281 L 76.445312 295.089844 C 75.371094 295.703125 75.15625 296.773438 75.316406 297.570312 C 75.472656 298.371094 76.082031 299.277344 77.308594 299.433594 Z M 273.191406 325.636719 C 271.988281 325.636719 270.785156 325.558594 269.589844 325.40625 L 77.191406 300.351562 C 75.78125 300.167969 74.6875 299.148438 74.410156 297.75 C 74.136719 296.355469 74.753906 294.996094 75.992188 294.285156 L 121.230469 268.6875 C 126.609375 265.613281 132.960938 264.355469 139.105469 265.140625 L 331.503906 290.199219 C 332.914062 290.378906 334.003906 291.398438 334.285156 292.796875 C 334.558594 294.195312 333.941406 295.554688 332.707031 296.257812 L 287.464844 321.859375 C 283.132812 324.335938 278.167969 325.636719 273.191406 325.636719 " fill-opacity="1" fill-rule="nonzero"/><path fill="#ffffff" d="M 316.59375 240.535156 C 316.699219 247.878906 310.40625 253.164062 302.582031 252.335938 L 155.359375 236.808594 C 148.433594 236.082031 142.832031 229.933594 142.8125 223.089844 L 142.273438 52.328125 C 142.25 45.640625 147.746094 40.363281 154.578125 40.539062 L 299.714844 44.199219 C 307.425781 44.390625 313.796875 50.347656 313.902344 57.507812 L 316.59375 240.535156 " fill-opacity="1" fill-rule="nonzero"/><path fill="#000000" d="M 154.246094 40.996094 C 151.144531 40.996094 148.257812 42.152344 146.089844 44.277344 C 143.914062 46.40625 142.722656 49.261719 142.734375 52.324219 L 143.269531 223.089844 C 143.292969 229.699219 148.734375 235.648438 155.40625 236.351562 L 302.625 251.878906 C 306.421875 252.277344 310.058594 251.175781 312.609375 248.84375 C 314.929688 246.726562 316.179688 243.773438 316.128906 240.542969 L 313.441406 57.515625 C 313.339844 50.613281 307.175781 44.847656 299.703125 44.660156 L 154.5625 41 C 154.457031 40.996094 154.351562 40.996094 154.246094 40.996094 Z M 304.148438 252.882812 C 303.613281 252.882812 303.074219 252.855469 302.53125 252.796875 L 155.308594 237.269531 C 148.1875 236.519531 142.371094 230.160156 142.347656 223.09375 L 141.8125 52.328125 C 141.800781 49.015625 143.09375 45.917969 145.445312 43.617188 C 147.867188 41.246094 151.117188 39.996094 154.585938 40.078125 L 299.722656 43.734375 C 307.6875 43.9375 314.253906 50.113281 314.363281 57.5 L 317.050781 240.527344 C 317.105469 244.027344 315.746094 247.226562 313.226562 249.527344 C 310.851562 251.695312 307.613281 252.882812 304.148438 252.882812 " fill-opacity="1" fill-rule="nonzero"/><path fill="#000000" d="M 142.746094 57.097656 L 313.515625 62.617188 L 313.441406 57.515625 C 313.335938 50.5 307.40625 44.851562 299.941406 44.664062 L 154.773438 41.003906 C 151.542969 40.925781 148.363281 42.152344 146.085938 44.378906 C 143.914062 46.503906 142.722656 49.328125 142.734375 52.328125 Z M 313.984375 63.554688 C 313.976562 63.554688 313.972656 63.554688 313.96875 63.554688 L 142.273438 58.003906 C 142.027344 57.996094 141.828125 57.792969 141.828125 57.542969 L 141.8125 52.328125 C 141.800781 49.078125 143.089844 46.019531 145.441406 43.71875 C 147.894531 41.320312 151.304688 39.996094 154.796875 40.082031 L 299.960938 43.742188 C 307.921875 43.941406 314.25 49.988281 314.363281 57.5 L 314.445312 63.085938 C 314.445312 63.214844 314.394531 63.335938 314.304688 63.421875 C 314.214844 63.511719 314.101562 63.554688 313.984375 63.554688 " fill-opacity="1" fill-rule="nonzero"/><path fill="#000000" d="M 157.058594 72.617188 C 156.511719 72.617188 156 72.816406 155.621094 73.1875 C 155.230469 73.5625 155.015625 74.070312 155.019531 74.617188 L 155.175781 114.082031 C 155.183594 115.265625 156.167969 116.28125 157.371094 116.351562 L 298.085938 124.28125 C 298.773438 124.316406 299.425781 124.089844 299.878906 123.652344 C 300.285156 123.265625 300.507812 122.742188 300.5 122.179688 L 299.921875 80.335938 C 299.902344 79.078125 298.773438 78.011719 297.398438 77.960938 L 157.144531 72.617188 C 157.117188 72.617188 157.085938 72.617188 157.058594 72.617188 Z M 298.234375 125.207031 C 298.167969 125.207031 298.097656 125.207031 298.03125 125.199219 L 157.324219 117.273438 C 155.636719 117.175781 154.261719 115.75 154.257812 114.089844 L 154.097656 74.621094 C 154.097656 73.820312 154.40625 73.074219 154.976562 72.523438 C 155.5625 71.957031 156.347656 71.660156 157.179688 71.695312 L 297.433594 77.039062 C 299.289062 77.109375 300.820312 78.582031 300.84375 80.324219 L 301.421875 122.167969 C 301.429688 122.988281 301.109375 123.753906 300.519531 124.320312 C 299.925781 124.886719 299.101562 125.207031 298.234375 125.207031 " fill-opacity="1" fill-rule="nonzero"/><path fill="#000000" d="M 157.222656 126.902344 C 156.695312 126.902344 156.203125 127.089844 155.835938 127.441406 C 155.445312 127.808594 155.234375 128.316406 155.238281 128.867188 L 155.601562 221.015625 C 155.605469 222.230469 156.609375 223.316406 157.839844 223.4375 L 219.214844 229.582031 C 219.84375 229.644531 220.429688 229.464844 220.855469 229.074219 C 221.253906 228.710938 221.46875 228.199219 221.464844 227.636719 L 220.667969 132.945312 C 220.660156 131.71875 219.605469 130.65625 218.316406 130.582031 L 157.359375 126.90625 C 157.3125 126.902344 157.269531 126.902344 157.222656 126.902344 Z M 219.460938 230.519531 C 219.351562 230.519531 219.238281 230.511719 219.121094 230.5 L 157.746094 224.359375 C 156.0625 224.1875 154.6875 222.691406 154.679688 221.019531 L 154.316406 128.871094 C 154.3125 128.0625 154.625 127.316406 155.203125 126.769531 C 155.789062 126.214844 156.574219 125.929688 157.414062 125.984375 L 218.371094 129.660156 C 220.132812 129.765625 221.578125 131.234375 221.589844 132.933594 L 222.386719 227.628906 C 222.394531 228.457031 222.070312 229.214844 221.476562 229.757812 C 220.933594 230.253906 220.226562 230.519531 219.460938 230.519531 " fill-opacity="1" fill-rule="nonzero"/><path fill="#000000" d="M 233.167969 131.480469 C 232.585938 131.480469 232.050781 131.683594 231.652344 132.0625 C 231.253906 132.441406 231.039062 132.957031 231.042969 133.515625 L 231.902344 228.570312 C 231.914062 229.832031 233 230.960938 234.320312 231.09375 L 299.640625 237.632812 C 300.339844 237.703125 300.984375 237.507812 301.441406 237.085938 C 301.847656 236.710938 302.070312 236.1875 302.0625 235.621094 L 300.714844 137.855469 C 300.699219 136.582031 299.554688 135.476562 298.171875 135.394531 L 233.320312 131.484375 C 233.265625 131.480469 233.21875 131.480469 233.167969 131.480469 Z M 299.910156 238.570312 C 299.792969 238.570312 299.671875 238.5625 299.550781 238.550781 L 234.226562 232.011719 C 232.453125 231.835938 230.996094 230.292969 230.980469 228.578125 L 230.121094 133.519531 C 230.117188 132.707031 230.433594 131.949219 231.015625 131.394531 C 231.636719 130.804688 232.472656 130.507812 233.375 130.5625 L 298.222656 134.472656 C 300.082031 134.585938 301.613281 136.097656 301.636719 137.839844 L 302.984375 235.605469 C 302.992188 236.441406 302.667969 237.210938 302.066406 237.765625 C 301.5 238.28125 300.730469 238.570312 299.910156 238.570312 " fill-opacity="1" fill-rule="nonzero"/><path fill="#ffffff" d="M 178.910156 112.683594 L 103.945312 108.417969 C 99.257812 108.152344 95.472656 112.027344 95.472656 117.074219 L 95.472656 205.148438 C 95.472656 210.261719 99.285156 214.8125 104.007812 215.308594 L 179.539062 223.289062 C 184.617188 223.824219 188.71875 219.933594 188.6875 214.601562 L 188.101562 122.730469 C 188.070312 117.464844 183.945312 112.96875 178.910156 112.683594 " fill-opacity="1" fill-rule="nonzero"/><path fill="#000000" d="M 103.492188 108.867188 C 101.628906 108.867188 99.867188 109.570312 98.492188 110.867188 C 96.867188 112.40625 95.933594 114.667969 95.933594 117.074219 L 95.933594 205.148438 C 95.933594 210.027344 99.578125 214.378906 104.054688 214.855469 L 179.589844 222.832031 C 181.835938 223.066406 183.964844 222.394531 185.582031 220.929688 C 187.300781 219.371094 188.238281 217.125 188.222656 214.601562 L 187.644531 122.734375 C 187.609375 117.71875 183.679688 113.417969 178.882812 113.144531 L 103.917969 108.878906 C 103.777344 108.871094 103.636719 108.867188 103.492188 108.867188 Z M 180.472656 223.800781 C 180.148438 223.800781 179.820312 223.785156 179.492188 223.746094 L 103.957031 215.769531 C 99.027344 215.25 95.011719 210.484375 95.011719 205.148438 L 95.011719 117.074219 C 95.011719 114.417969 96.050781 111.910156 97.859375 110.195312 C 99.523438 108.625 101.695312 107.824219 103.972656 107.960938 L 178.9375 112.222656 C 184.210938 112.523438 188.53125 117.238281 188.566406 122.730469 L 189.144531 214.597656 C 189.164062 217.382812 188.117188 219.878906 186.203125 221.613281 C 184.628906 223.039062 182.621094 223.800781 180.472656 223.800781 " fill-opacity="1" fill-rule="nonzero"/><path fill="#ffffff" d="M 179.300781 126.230469 L 103.285156 121.453125 C 101.839844 121.359375 100.671875 122.550781 100.671875 124.113281 L 100.699219 204.980469 C 100.699219 206.558594 101.878906 207.957031 103.332031 208.109375 L 179.8125 215.9375 C 181.371094 216.097656 182.632812 214.898438 182.621094 213.261719 L 182.128906 129.335938 C 182.117188 127.71875 180.851562 126.328125 179.300781 126.230469 " fill-opacity="1" fill-rule="nonzero"/><path fill="#000000" d="M 103.132812 121.90625 C 102.644531 121.90625 102.183594 122.089844 101.820312 122.429688 C 101.382812 122.84375 101.132812 123.453125 101.132812 124.113281 L 101.160156 204.980469 C 101.160156 206.328125 102.15625 207.523438 103.378906 207.648438 L 179.859375 215.480469 C 180.460938 215.542969 181.027344 215.359375 181.453125 214.972656 C 181.914062 214.554688 182.164062 213.949219 182.160156 213.265625 L 181.664062 129.339844 C 181.65625 127.960938 180.582031 126.773438 179.269531 126.691406 L 103.257812 121.910156 C 103.214844 121.910156 103.175781 121.90625 103.132812 121.90625 Z M 180.09375 216.414062 C 179.984375 216.414062 179.875 216.410156 179.765625 216.398438 L 103.285156 208.566406 C 101.605469 208.394531 100.238281 206.785156 100.238281 204.980469 L 100.210938 124.113281 C 100.210938 123.203125 100.566406 122.34375 101.191406 121.757812 C 101.769531 121.214844 102.523438 120.9375 103.316406 120.992188 L 179.328125 125.769531 C 181.113281 125.878906 182.578125 127.480469 182.585938 129.332031 L 183.082031 213.257812 C 183.089844 214.207031 182.730469 215.058594 182.074219 215.65625 C 181.527344 216.148438 180.835938 216.414062 180.09375 216.414062 " fill-opacity="1" fill-rule="nonzero"/><path fill="#ffffff" d="M 176.917969 162.46875 L 104.980469 156.789062 L 104.960938 126.996094 L 176.75 131.6875 L 176.917969 162.46875 " fill-opacity="1" fill-rule="nonzero"/><path fill="#000000" d="M 105.441406 156.367188 L 176.457031 161.96875 L 176.289062 132.121094 L 105.421875 127.488281 Z M 176.917969 162.929688 C 176.90625 162.929688 176.894531 162.929688 176.882812 162.925781 L 104.945312 157.25 C 104.707031 157.234375 104.519531 157.03125 104.519531 156.789062 L 104.5 126.996094 C 104.5 126.871094 104.554688 126.75 104.644531 126.660156 C 104.738281 126.570312 104.863281 126.53125 104.992188 126.535156 L 176.78125 131.226562 C 177.019531 131.242188 177.210938 131.445312 177.210938 131.683594 L 177.378906 162.464844 C 177.382812 162.59375 177.328125 162.71875 177.234375 162.804688 C 177.148438 162.886719 177.035156 162.929688 176.917969 162.929688 " fill-opacity="1" fill-rule="nonzero"/><path fill="#ffffff" d="M 137.855469 206.265625 L 105.011719 202.980469 L 104.984375 161.75 L 137.734375 164.410156 L 137.855469 206.265625 " fill-opacity="1" fill-rule="nonzero"/><path fill="#000000" d="M 105.472656 202.5625 L 137.394531 205.757812 L 137.273438 164.835938 L 105.445312 162.253906 Z M 137.855469 206.726562 C 137.839844 206.726562 137.824219 206.726562 137.808594 206.726562 L 104.964844 203.441406 C 104.730469 203.417969 104.550781 203.21875 104.550781 202.984375 L 104.523438 161.75 C 104.523438 161.625 104.578125 161.5 104.671875 161.414062 C 104.765625 161.324219 104.890625 161.28125 105.019531 161.292969 L 137.773438 163.949219 C 138.011719 163.96875 138.195312 164.167969 138.195312 164.410156 L 138.316406 206.261719 C 138.316406 206.394531 138.261719 206.519531 138.164062 206.609375 C 138.078125 206.683594 137.96875 206.726562 137.855469 206.726562 " fill-opacity="1" fill-rule="nonzero"/><path fill="#ffffff" d="M 177.238281 210.203125 L 143.230469 206.800781 L 143.097656 164.84375 L 177.003906 167.597656 L 177.238281 210.203125 " fill-opacity="1" fill-rule="nonzero"/><path fill="#000000" d="M 143.691406 206.386719 L 176.777344 209.691406 L 176.542969 168.023438 L 143.558594 165.347656 Z M 177.238281 210.664062 C 177.222656 210.664062 177.210938 210.664062 177.191406 210.660156 L 143.183594 207.261719 C 142.949219 207.238281 142.773438 207.042969 142.769531 206.804688 L 142.632812 164.847656 C 142.632812 164.71875 142.6875 164.59375 142.78125 164.507812 C 142.878906 164.417969 143.003906 164.375 143.132812 164.382812 L 177.042969 167.136719 C 177.277344 167.15625 177.460938 167.355469 177.464844 167.59375 L 177.699219 210.199219 C 177.703125 210.332031 177.648438 210.457031 177.550781 210.542969 C 177.464844 210.621094 177.351562 210.664062 177.238281 210.664062 " fill-opacity="1" fill-rule="nonzero"/><path fill="#ffffff" d="M 178.027344 117 L 127.808594 114.042969 C 126.738281 113.980469 125.871094 114.851562 125.875 115.996094 L 125.878906 117.550781 C 125.878906 118.691406 126.75 119.671875 127.820312 119.738281 L 178.0625 122.820312 C 179.179688 122.890625 180.085938 122 180.078125 120.828125 L 180.070312 119.230469 C 180.058594 118.0625 179.148438 117.0625 178.027344 117 " fill-opacity="1" fill-rule="nonzero"/><path fill="#000000" d="M 127.699219 114.5 C 127.363281 114.5 127.046875 114.625 126.800781 114.859375 C 126.5 115.144531 126.335938 115.546875 126.335938 115.996094 L 126.339844 117.550781 C 126.339844 118.453125 127.019531 119.226562 127.847656 119.277344 L 178.089844 122.363281 C 178.488281 122.382812 178.863281 122.25 179.148438 121.984375 C 179.453125 121.695312 179.617188 121.285156 179.617188 120.832031 L 179.605469 119.234375 C 179.601562 118.308594 178.882812 117.507812 178 117.457031 L 127.78125 114.503906 C 127.753906 114.503906 127.726562 114.5 127.699219 114.5 Z M 178.183594 123.285156 C 178.132812 123.285156 178.082031 123.285156 178.03125 123.28125 L 127.792969 120.195312 C 126.484375 120.117188 125.421875 118.933594 125.417969 117.554688 L 125.414062 115.996094 C 125.414062 115.300781 125.6875 114.644531 126.167969 114.191406 C 126.617188 113.761719 127.214844 113.546875 127.832031 113.582031 L 178.054688 116.539062 C 179.410156 116.617188 180.519531 117.824219 180.527344 119.230469 L 180.539062 120.824219 C 180.542969 121.535156 180.273438 122.1875 179.78125 122.652344 C 179.34375 123.066406 178.78125 123.285156 178.183594 123.285156 " fill-opacity="1" fill-rule="nonzero"/><path fill="#000000" d="M 107.074219 115.710938 C 107.074219 117.082031 106.042969 118.132812 104.769531 118.054688 C 103.496094 117.976562 102.46875 116.804688 102.46875 115.433594 C 102.46875 114.066406 103.496094 113.015625 104.765625 113.089844 C 106.039062 113.164062 107.070312 114.339844 107.074219 115.710938 " fill-opacity="1" fill-rule="nonzero"/><path fill="#000000" d="M 113.828125 116.117188 C 113.828125 117.492188 112.792969 118.546875 111.511719 118.46875 C 110.230469 118.390625 109.195312 117.210938 109.195312 115.839844 C 109.195312 114.464844 110.226562 113.414062 111.507812 113.488281 C 112.785156 113.5625 113.824219 114.738281 113.828125 116.117188 " fill-opacity="1" fill-rule="nonzero"/><path fill="#000000" d="M 120.625 116.527344 C 120.628906 117.90625 119.582031 118.960938 118.296875 118.882812 C 117.007812 118.804688 115.964844 117.621094 115.964844 116.246094 C 115.960938 114.867188 117 113.8125 118.285156 113.890625 C 119.574219 113.964844 120.621094 115.144531 120.625 116.527344 " fill-opacity="1" fill-rule="nonzero"/><path fill="#ffffff" d="M 361.378906 56.699219 L 277 54.128906 C 271.738281 53.964844 267.53125 58.175781 267.585938 63.53125 L 268.535156 156.992188 C 268.589844 162.421875 272.921875 167.164062 278.230469 167.585938 L 363.332031 174.351562 C 369.066406 174.808594 373.652344 170.570312 373.550781 164.894531 L 371.863281 67.144531 C 371.765625 61.546875 367.058594 56.871094 361.378906 56.699219 " fill-opacity="1" fill-rule="nonzero"/><g clip-path="url(#939cb2581f)"><path fill="#000000" d="M 276.710938 54.582031 C 274.429688 54.582031 272.300781 55.445312 270.683594 57.027344 C 268.960938 58.722656 268.023438 61.027344 268.046875 63.523438 L 269 156.984375 C 269.050781 162.175781 273.210938 166.722656 278.265625 167.125 L 363.371094 173.890625 C 366.042969 174.101562 368.53125 173.265625 370.371094 171.535156 C 372.171875 169.839844 373.140625 167.484375 373.09375 164.902344 L 371.402344 67.15625 C 371.308594 61.804688 366.808594 57.324219 361.367188 57.160156 L 276.988281 54.589844 C 276.894531 54.582031 276.804688 54.582031 276.710938 54.582031 Z M 364.183594 174.847656 C 363.890625 174.847656 363.597656 174.832031 363.296875 174.808594 L 278.195312 168.046875 C 272.675781 167.605469 268.132812 162.648438 268.078125 156.996094 L 267.125 63.535156 C 267.097656 60.785156 268.132812 58.238281 270.039062 56.371094 C 271.898438 54.546875 274.375 53.59375 277.015625 53.664062 L 361.394531 56.234375 C 367.320312 56.414062 372.222656 61.308594 372.320312 67.140625 L 374.015625 164.886719 C 374.0625 167.730469 372.996094 170.332031 371.003906 172.207031 C 369.175781 173.925781 366.78125 174.847656 364.183594 174.847656 " fill-opacity="1" fill-rule="nonzero"/></g><path fill="#000000" d="M 276.296875 68.429688 C 275.683594 68.429688 275.109375 68.660156 274.675781 69.082031 C 274.203125 69.542969 273.953125 70.171875 273.957031 70.855469 L 274.867188 156.6875 C 274.882812 158.128906 276.03125 159.386719 277.429688 159.492188 L 363.597656 166.0625 C 364.324219 166.113281 365 165.886719 365.5 165.414062 C 365.988281 164.957031 366.246094 164.316406 366.238281 163.617188 L 364.734375 74.332031 C 364.710938 72.855469 363.460938 71.609375 361.957031 71.550781 C 361.957031 71.550781 361.957031 71.550781 361.953125 71.550781 L 276.390625 68.433594 C 276.355469 68.429688 276.328125 68.429688 276.296875 68.429688 Z M 363.8125 166.992188 C 363.71875 166.992188 363.621094 166.984375 363.523438 166.980469 L 277.359375 160.410156 C 275.496094 160.269531 273.960938 158.605469 273.945312 156.699219 L 273.035156 70.867188 C 273.023438 69.929688 273.382812 69.058594 274.03125 68.425781 C 274.671875 67.800781 275.519531 67.46875 276.421875 67.511719 L 361.988281 70.628906 C 363.976562 70.703125 365.625 72.355469 365.65625 74.316406 L 367.160156 163.601562 C 367.175781 164.566406 366.8125 165.445312 366.132812 166.085938 C 365.507812 166.675781 364.691406 166.992188 363.8125 166.992188 " fill-opacity="1" fill-rule="nonzero"/><path fill="#000000" d="M 279.359375 124.898438 L 315.316406 127.097656 L 314.625 75.6875 L 278.808594 74.292969 Z M 315.78125 128.050781 C 315.773438 128.050781 315.761719 128.050781 315.753906 128.046875 L 278.878906 125.792969 C 278.636719 125.777344 278.445312 125.578125 278.445312 125.335938 L 277.882812 73.820312 C 277.882812 73.691406 277.929688 73.570312 278.023438 73.480469 C 278.113281 73.394531 278.234375 73.34375 278.363281 73.351562 L 315.097656 74.78125 C 315.34375 74.792969 315.539062 74.992188 315.542969 75.238281 L 316.242188 127.582031 C 316.246094 127.710938 316.195312 127.835938 316.101562 127.921875 C 316.011719 128.003906 315.898438 128.050781 315.78125 128.050781 " fill-opacity="1" fill-rule="nonzero"/><path fill="#000000" d="M 279.679688 154.042969 L 315.710938 156.703125 L 315.382812 132.402344 L 279.417969 130.132812 Z M 316.179688 157.660156 C 316.167969 157.660156 316.15625 157.65625 316.144531 157.65625 L 279.1875 154.933594 C 278.949219 154.914062 278.765625 154.714844 278.761719 154.476562 L 278.492188 129.644531 C 278.488281 129.519531 278.542969 129.394531 278.632812 129.304688 C 278.730469 129.21875 278.851562 129.175781 278.980469 129.179688 L 315.871094 131.507812 C 316.113281 131.523438 316.300781 131.71875 316.300781 131.964844 L 316.636719 157.191406 C 316.640625 157.320312 316.589844 157.445312 316.496094 157.535156 C 316.410156 157.613281 316.296875 157.660156 316.179688 157.660156 " fill-opacity="1" fill-rule="nonzero"/><path fill="#000000" d="M 321.347656 107.328125 L 359 109.308594 L 358.476562 77.398438 L 320.914062 75.933594 Z M 359.46875 110.257812 C 359.460938 110.257812 359.453125 110.257812 359.445312 110.257812 L 320.867188 108.226562 C 320.625 108.210938 320.433594 108.015625 320.433594 107.769531 L 319.984375 75.460938 C 319.984375 75.335938 320.035156 75.210938 320.125 75.125 C 320.214844 75.039062 320.335938 74.984375 320.464844 74.992188 L 358.945312 76.492188 C 359.191406 76.503906 359.386719 76.703125 359.390625 76.949219 L 359.929688 109.789062 C 359.929688 109.917969 359.882812 110.039062 359.789062 110.128906 C 359.703125 110.210938 359.585938 110.257812 359.46875 110.257812 " fill-opacity="1" fill-rule="nonzero"/><path fill="#000000" d="M 322.035156 157.167969 L 359.832031 159.957031 L 359.105469 115.570312 L 321.433594 113.503906 Z M 360.304688 160.914062 C 360.292969 160.914062 360.28125 160.914062 360.269531 160.914062 L 321.546875 158.058594 C 321.308594 158.039062 321.121094 157.84375 321.117188 157.601562 L 320.503906 113.023438 C 320.503906 112.894531 320.554688 112.769531 320.644531 112.679688 C 320.738281 112.59375 320.867188 112.546875 320.992188 112.554688 L 359.585938 114.671875 C 359.824219 114.6875 360.015625 114.882812 360.019531 115.125 L 360.765625 160.449219 C 360.765625 160.578125 360.714844 160.699219 360.617188 160.789062 C 360.535156 160.871094 360.421875 160.914062 360.304688 160.914062 " fill-opacity="1" fill-rule="nonzero"/><path fill="#000000" d="M 303.792969 59.933594 C 303.359375 59.933594 302.960938 60.097656 302.660156 60.394531 C 302.339844 60.707031 302.167969 61.128906 302.175781 61.59375 L 302.195312 63.246094 C 302.207031 64.214844 303 65.027344 303.957031 65.0625 L 360.550781 67.042969 C 361.035156 67.050781 361.496094 66.886719 361.832031 66.554688 C 362.15625 66.234375 362.332031 65.804688 362.324219 65.339844 L 362.296875 63.640625 C 362.28125 62.640625 361.4375 61.804688 360.417969 61.769531 L 303.851562 59.9375 C 303.832031 59.9375 303.8125 59.933594 303.792969 59.933594 Z M 360.617188 67.964844 C 360.585938 67.964844 360.550781 67.964844 360.515625 67.964844 L 303.921875 65.984375 C 302.480469 65.933594 301.292969 64.707031 301.273438 63.257812 L 301.253906 61.605469 C 301.246094 60.886719 301.515625 60.222656 302.015625 59.734375 C 302.511719 59.246094 303.175781 58.984375 303.878906 59.015625 L 360.445312 60.847656 C 361.953125 60.894531 363.191406 62.140625 363.21875 63.625 L 363.246094 65.324219 C 363.257812 66.042969 362.984375 66.714844 362.480469 67.214844 C 361.984375 67.699219 361.328125 67.964844 360.617188 67.964844 " fill-opacity="1" fill-rule="nonzero"/><path fill="#000000" d="M 277.890625 59.519531 C 277.359375 59.519531 276.867188 59.71875 276.492188 60.085938 C 276.089844 60.480469 275.875 61.019531 275.878906 61.601562 C 275.894531 62.8125 276.863281 63.828125 278.046875 63.867188 C 278.605469 63.890625 279.125 63.6875 279.515625 63.304688 C 279.917969 62.910156 280.136719 62.371094 280.128906 61.785156 C 280.117188 60.574219 279.144531 59.5625 277.957031 59.519531 C 277.933594 59.519531 277.914062 59.519531 277.890625 59.519531 Z M 278.121094 64.792969 C 278.085938 64.792969 278.050781 64.789062 278.015625 64.789062 C 276.347656 64.730469 274.976562 63.304688 274.957031 61.613281 C 274.949219 60.773438 275.265625 59.996094 275.847656 59.425781 C 276.417969 58.867188 277.179688 58.5625 277.988281 58.597656 C 279.660156 58.652344 281.035156 60.082031 281.054688 61.777344 C 281.0625 62.613281 280.746094 63.394531 280.15625 63.964844 C 279.613281 64.5 278.890625 64.792969 278.121094 64.792969 " fill-opacity="1" fill-rule="nonzero"/><path fill="#000000" d="M 285.460938 59.769531 C 284.925781 59.769531 284.425781 59.96875 284.050781 60.339844 C 283.648438 60.730469 283.429688 61.269531 283.4375 61.855469 C 283.453125 63.070312 284.429688 64.089844 285.621094 64.132812 C 286.183594 64.148438 286.710938 63.949219 287.105469 63.566406 C 287.511719 63.167969 287.730469 62.628906 287.71875 62.042969 C 287.707031 60.828125 286.722656 59.808594 285.53125 59.769531 C 285.507812 59.769531 285.484375 59.769531 285.460938 59.769531 Z M 285.695312 65.054688 C 285.664062 65.054688 285.625 65.054688 285.589844 65.054688 C 283.914062 64.996094 282.535156 63.566406 282.515625 61.867188 C 282.503906 61.027344 282.824219 60.25 283.40625 59.679688 C 283.980469 59.113281 284.75 58.816406 285.5625 58.847656 C 287.238281 58.902344 288.625 60.332031 288.640625 62.03125 C 288.652344 62.875 288.335938 63.652344 287.75 64.222656 C 287.199219 64.761719 286.476562 65.054688 285.695312 65.054688 " fill-opacity="1" fill-rule="nonzero"/><path fill="#000000" d="M 293.078125 60.019531 C 292.539062 60.019531 292.035156 60.222656 291.65625 60.59375 C 291.253906 60.988281 291.035156 61.527344 291.039062 62.113281 C 291.054688 63.332031 292.046875 64.355469 293.246094 64.398438 C 293.8125 64.421875 294.347656 64.214844 294.742188 63.828125 C 295.148438 63.429688 295.363281 62.890625 295.359375 62.304688 C 295.34375 61.082031 294.351562 60.058594 293.152344 60.019531 C 293.125 60.019531 293.105469 60.019531 293.078125 60.019531 Z M 293.320312 65.324219 C 293.285156 65.324219 293.25 65.324219 293.210938 65.320312 C 291.527344 65.261719 290.140625 63.828125 290.117188 62.125 C 290.109375 61.285156 290.425781 60.507812 291.011719 59.933594 C 291.589844 59.367188 292.355469 59.0625 293.179688 59.097656 C 294.867188 59.152344 296.261719 60.585938 296.28125 62.292969 C 296.292969 63.132812 295.972656 63.910156 295.386719 64.484375 C 294.832031 65.027344 294.105469 65.324219 293.320312 65.324219 " fill-opacity="1" fill-rule="nonzero"/><path fill="#000000" d="M 283.828125 232.148438 C 265.503906 230.371094 248.648438 221.136719 237.460938 206.910156 C 235.5625 204.492188 235.941406 201.269531 238.3125 199.703125 C 240.691406 198.132812 244.167969 198.820312 246.082031 201.238281 C 255.1875 212.746094 268.867188 220.175781 283.695312 221.550781 C 306.1875 223.636719 325.75 211.261719 330.9375 191.402344 C 331.671875 188.585938 334.855469 187.074219 338.050781 188.03125 C 341.253906 188.996094 343.257812 192.070312 342.515625 194.902344 C 339.4375 206.664062 331.898438 216.878906 321.335938 223.632812 C 310.53125 230.546875 297.539062 233.476562 283.828125 232.148438 " fill-opacity="1" fill-rule="nonzero"/><path fill="#000000" d="M 356.054688 202.945312 L 338.144531 181.0625 L 316.035156 195.035156 L 356.054688 202.945312 " fill-opacity="1" fill-rule="nonzero"/><path fill="#000000" d="M 356.054688 202.945312 L 338.144531 181.0625 L 316.035156 195.035156 L 356.054688 202.945312 " fill-opacity="1" fill-rule="nonzero"/><path fill="#000000" d="M 134.417969 98.105469 C 134.015625 98.085938 133.609375 98.019531 133.207031 97.902344 C 130.5 97.128906 128.847656 94.394531 129.503906 91.792969 C 132.242188 80.976562 138.769531 71.324219 147.925781 64.582031 C 157.433594 57.585938 168.996094 54.054688 181.417969 54.40625 C 199.527344 54.917969 216.808594 63.957031 227.511719 78.691406 C 229.242188 81.070312 228.652344 84.21875 226.191406 85.71875 C 223.738281 87.21875 220.359375 86.5 218.644531 84.125 C 210.039062 72.207031 196.113281 64.855469 181.476562 64.378906 C 161.210938 63.71875 143.988281 76.152344 139.316406 94.585938 C 138.753906 96.804688 136.6875 98.210938 134.417969 98.105469 " fill-opacity="1" fill-rule="nonzero"/><path fill="#ffffff" d="M 118.292969 85.035156 L 133.046875 104.28125 L 152.28125 90.703125 L 118.292969 85.035156 " fill-opacity="1" fill-rule="nonzero"/><path fill="#000000" d="M 118.292969 85.035156 L 133.046875 104.28125 L 152.28125 90.703125 L 118.292969 85.035156 " fill-opacity="1" fill-rule="nonzero"/><path fill="#000000" d="M 118.292969 85.035156 L 133.046875 104.28125 L 152.28125 90.703125 L 118.292969 85.035156 " fill-opacity="1" fill-rule="nonzero"/><path fill="#ffffff" d="M 111.949219 215.585938 C 111.949219 215.023438 80.527344 210.058594 78.5 204.308594 C 75.472656 195.734375 71.703125 185.421875 71.703125 185.421875 L 63.855469 190.382812 L 68.90625 215.058594 L 111.949219 215.585938 " fill-opacity="1" fill-rule="nonzero"/><path fill="#000000" d="M 69.285156 214.601562 L 107.992188 215.078125 C 107.6875 215.015625 107.378906 214.945312 107.0625 214.878906 C 92.839844 211.847656 79.484375 208.488281 78.0625 204.464844 C 75.464844 197.097656 72.277344 188.34375 71.464844 186.113281 L 64.371094 190.601562 Z M 111.949219 216.050781 C 111.945312 216.050781 111.945312 216.050781 111.941406 216.050781 L 68.902344 215.519531 C 68.683594 215.515625 68.5 215.363281 68.457031 215.148438 L 63.402344 190.472656 C 63.363281 190.285156 63.449219 190.09375 63.609375 189.992188 L 71.457031 185.03125 C 71.574219 184.957031 71.71875 184.941406 71.851562 184.984375 C 71.980469 185.027344 72.085938 185.132812 72.136719 185.261719 C 72.171875 185.367188 75.941406 195.675781 78.933594 204.15625 C 80.375 208.246094 99.210938 212.265625 107.253906 213.980469 C 112.410156 215.078125 112.410156 215.078125 112.410156 215.589844 C 112.40625 215.714844 112.359375 215.832031 112.269531 215.917969 C 112.183594 216 112.070312 216.050781 111.949219 216.050781 " fill-opacity="1" fill-rule="nonzero"/><path fill="#ffffff" d="M 75.15625 234.28125 L 67.574219 190.589844 L 74.820312 186.4375 C 74.820312 186.4375 65.945312 161.832031 55.992188 159.46875 L 55.992188 159.472656 C 55.628906 159.320312 55.261719 159.175781 54.878906 159.054688 C 41.234375 154.703125 29.816406 156.457031 22.324219 158.90625 C 16.617188 160.769531 12.871094 166.238281 13.148438 172.238281 L 12.378906 238.089844 C 12.554688 241.949219 17.878906 245.699219 21.414062 247.25 C 25.675781 249.117188 33.308594 248.507812 43.8125 248.507812 C 53.609375 248.507812 60.527344 246.863281 65.105469 245.128906 C 69.488281 243.46875 75.707031 238.9375 75.15625 234.28125 " fill-opacity="1" fill-rule="nonzero"/><path fill="#000000" d="M 38.195312 156.863281 C 31.847656 156.863281 26.488281 158.03125 22.464844 159.34375 C 16.984375 161.132812 13.34375 166.429688 13.609375 172.21875 L 12.839844 238.097656 C 13.007812 241.726562 18.300781 245.382812 21.597656 246.828125 C 24.875 248.261719 30.199219 248.195312 37.570312 248.097656 C 39.554688 248.074219 41.601562 248.046875 43.8125 248.046875 C 51.972656 248.046875 59.085938 246.917969 64.941406 244.699219 C 69.175781 243.09375 75.203125 238.691406 74.699219 234.347656 L 67.121094 190.667969 C 67.085938 190.476562 67.175781 190.285156 67.34375 190.1875 L 74.25 186.230469 C 73.105469 183.191406 64.867188 162.136719 55.945312 159.929688 C 55.902344 159.925781 55.855469 159.914062 55.816406 159.894531 C 55.410156 159.726562 55.070312 159.597656 54.738281 159.492188 C 48.730469 157.578125 43.160156 156.863281 38.195312 156.863281 Z M 32.691406 249.0625 C 27.683594 249.0625 23.882812 248.835938 21.230469 247.671875 C 17.589844 246.078125 12.105469 242.214844 11.917969 238.113281 L 12.6875 172.234375 C 12.402344 166.058594 16.304688 160.386719 22.179688 158.46875 C 29.476562 156.082031 41.09375 154.175781 55.019531 158.613281 C 55.359375 158.722656 55.707031 158.851562 56.113281 159.019531 C 66.183594 161.433594 74.886719 185.265625 75.253906 186.277344 C 75.328125 186.488281 75.242188 186.722656 75.046875 186.835938 L 68.082031 190.828125 L 75.609375 234.203125 C 75.613281 234.210938 75.613281 234.21875 75.613281 234.226562 C 76.191406 239.121094 69.914062 243.800781 65.269531 245.5625 C 59.304688 247.820312 52.085938 248.96875 43.8125 248.96875 C 41.609375 248.96875 39.5625 248.996094 37.582031 249.019531 C 35.839844 249.042969 34.210938 249.0625 32.691406 249.0625 " fill-opacity="1" fill-rule="nonzero"/><path fill="#ffffff" d="M 1.625 198.539062 C 1.625 198.539062 2.597656 182.078125 4.019531 175.714844 C 7.007812 162.335938 19.761719 160.3125 19.761719 160.3125 L 21.308594 196.25 L 1.625 198.539062 " fill-opacity="1" fill-rule="nonzero"/><path fill="#000000" d="M 1.625 199 C 1.507812 199 1.394531 198.953125 1.308594 198.875 C 1.210938 198.777344 1.15625 198.648438 1.167969 198.511719 C 1.207031 197.835938 2.15625 181.941406 3.570312 175.617188 C 6.59375 162.085938 19.558594 159.878906 19.6875 159.855469 C 19.941406 159.816406 20.175781 159.988281 20.21875 160.238281 C 20.257812 160.488281 20.085938 160.726562 19.835938 160.769531 C 19.710938 160.789062 7.355469 162.910156 4.46875 175.816406 C 3.21875 181.417969 2.304688 195.105469 2.121094 198.015625 L 20.832031 195.839844 L 20.609375 190.738281 C 20.601562 190.484375 20.796875 190.269531 21.050781 190.257812 C 21.300781 190.238281 21.519531 190.445312 21.53125 190.699219 L 21.769531 196.230469 C 21.78125 196.472656 21.601562 196.679688 21.363281 196.710938 L 1.679688 198.996094 C 1.660156 198.996094 1.644531 199 1.625 199 " fill-opacity="1" fill-rule="nonzero"/><path fill="#ffffff" d="M 4.113281 197.851562 C 4.113281 197.851562 3.152344 210.40625 8.121094 218.835938 C 14.058594 228.902344 43.992188 215.34375 43.992188 215.34375 L 47.476562 213.371094 C 49.828125 212.035156 52.636719 211.75 55.210938 212.582031 L 60.835938 214.398438 C 60.835938 214.398438 56.191406 208.824219 52.242188 206.691406 C 50.390625 205.695312 47.988281 206.640625 45.960938 207.925781 C 42.472656 210.136719 38.367188 211.175781 34.238281 211.050781 L 22.332031 210.695312 C 20.332031 210.636719 18.691406 209.089844 18.519531 207.09375 L 17.613281 196.710938 L 4.113281 197.851562 " fill-opacity="1" fill-rule="nonzero"/><path fill="#000000" d="M 4.550781 198.277344 C 4.441406 200.457031 4.167969 211.222656 8.519531 218.601562 C 10.03125 221.164062 13.230469 222.105469 17.117188 222.105469 C 27.773438 222.105469 43.585938 215.023438 43.804688 214.925781 L 47.246094 212.972656 C 49.707031 211.578125 52.664062 211.273438 55.355469 212.144531 L 59.378906 213.445312 C 57.78125 211.691406 54.714844 208.550781 52.023438 207.101562 C 50.28125 206.160156 47.898438 207.242188 46.207031 208.316406 C 42.703125 210.535156 38.5625 211.644531 34.226562 211.511719 L 22.316406 211.160156 C 20.085938 211.089844 18.253906 209.359375 18.058594 207.136719 L 17.195312 197.207031 Z M 17.195312 223.019531 C 12.96875 223.019531 9.433594 221.96875 7.726562 219.070312 C 2.742188 210.613281 3.613281 198.335938 3.652344 197.816406 C 3.667969 197.59375 3.847656 197.414062 4.074219 197.394531 L 17.574219 196.25 C 17.828125 196.226562 18.050781 196.414062 18.074219 196.667969 L 18.976562 207.054688 C 19.132812 208.816406 20.578125 210.183594 22.34375 210.238281 L 34.253906 210.589844 C 38.402344 210.71875 42.367188 209.65625 45.714844 207.535156 C 48.476562 205.78125 50.746094 205.363281 52.460938 206.289062 C 56.441406 208.4375 61 213.871094 61.191406 214.105469 C 61.320312 214.261719 61.332031 214.488281 61.21875 214.65625 C 61.101562 214.828125 60.890625 214.902344 60.695312 214.839844 L 55.070312 213.019531 C 52.625 212.230469 49.9375 212.503906 47.703125 213.773438 L 44.222656 215.746094 C 43.304688 216.160156 27.992188 223.019531 17.195312 223.019531 " fill-opacity="1" fill-rule="nonzero"/><path fill="#ffffff" d="M 50.050781 335.917969 L 43.5625 355.296875 C 43.5625 355.296875 50.628906 354.695312 51.308594 354.828125 C 51.984375 354.960938 60.25 337.152344 60.25 337.152344 L 50.050781 335.917969 " fill-opacity="1" fill-rule="nonzero"/><path fill="#000000" d="M 50.367188 336.421875 L 44.222656 354.78125 C 46.039062 354.628906 50.054688 354.308594 51.171875 354.355469 C 52.117188 353.207031 56.660156 343.773438 59.566406 337.535156 Z M 43.5625 355.761719 C 43.421875 355.761719 43.289062 355.695312 43.199219 355.582031 C 43.105469 355.460938 43.074219 355.300781 43.125 355.152344 L 49.613281 335.769531 C 49.683594 335.5625 49.890625 335.433594 50.105469 335.457031 L 60.304688 336.695312 C 60.453125 336.710938 60.582031 336.796875 60.652344 336.929688 C 60.726562 337.058594 60.730469 337.210938 60.667969 337.347656 C 60.648438 337.390625 58.578125 341.851562 56.445312 346.242188 C 51.988281 355.433594 51.699219 355.371094 51.21875 355.28125 C 50.785156 355.207031 46.96875 355.46875 43.601562 355.757812 C 43.585938 355.761719 43.574219 355.761719 43.5625 355.761719 " fill-opacity="1" fill-rule="nonzero"/><path fill="#ffffff" d="M 45.046875 351.039062 C 45.046875 351.039062 54.808594 347.035156 56.613281 352.0625 C 58.910156 358.453125 62.496094 368.207031 62.496094 368.207031 C 63.105469 369.90625 61.9375 371.714844 60.140625 371.859375 C 56.574219 372.148438 51.253906 372.378906 48.773438 371.507812 C 44.863281 370.136719 38.371094 357.742188 38.371094 357.742188 L 40.371094 347.191406 C 40.371094 347.191406 43.910156 346.695312 45.046875 351.039062 " fill-opacity="1" fill-rule="nonzero"/><path fill="#000000" d="M 38.855469 357.667969 C 39.582031 359.035156 45.449219 369.851562 48.929688 371.074219 C 50.757812 371.71875 54.730469 371.832031 60.105469 371.398438 C 60.816406 371.34375 61.449219 370.964844 61.835938 370.363281 C 62.222656 369.765625 62.304688 369.035156 62.0625 368.363281 C 62.03125 368.269531 58.449219 358.539062 56.179688 352.21875 C 55.882812 351.386719 55.335938 350.804688 54.507812 350.433594 C 51.300781 349.007812 45.285156 351.441406 45.222656 351.46875 C 45.101562 351.519531 44.960938 351.511719 44.839844 351.453125 C 44.722656 351.390625 44.636719 351.285156 44.601562 351.15625 C 43.765625 347.957031 41.585938 347.632812 40.757812 347.632812 Z M 54.386719 372.582031 C 52.101562 372.582031 49.972656 372.417969 48.621094 371.945312 C 44.585938 370.527344 38.230469 358.46875 37.960938 357.953125 C 37.914062 357.863281 37.898438 357.757812 37.917969 357.652344 L 39.917969 347.109375 C 39.957031 346.914062 40.113281 346.765625 40.308594 346.738281 C 40.34375 346.730469 43.988281 346.269531 45.347656 350.429688 C 46.902344 349.855469 51.839844 348.238281 54.878906 349.59375 C 55.9375 350.0625 56.664062 350.839844 57.046875 351.90625 C 59.316406 358.222656 62.894531 367.949219 62.929688 368.046875 C 63.269531 368.996094 63.152344 370.023438 62.609375 370.863281 C 62.066406 371.707031 61.179688 372.238281 60.179688 372.320312 C 58.390625 372.464844 56.332031 372.582031 54.386719 372.582031 " fill-opacity="1" fill-rule="nonzero"/><path fill="#000000" d="M 59.996094 368.101562 L 49.972656 368.101562 C 49.71875 368.101562 49.511719 367.894531 49.511719 367.636719 C 49.511719 367.382812 49.71875 367.175781 49.972656 367.175781 L 59.996094 367.175781 C 60.253906 367.175781 60.460938 367.382812 60.460938 367.636719 C 60.460938 367.894531 60.253906 368.101562 59.996094 368.101562 " fill-opacity="1" fill-rule="nonzero"/><path fill="#ffffff" d="M 31.648438 340.679688 L 33.855469 360.175781 L 42.726562 357.742188 L 42.042969 340.171875 L 31.648438 340.679688 " fill-opacity="1" fill-rule="nonzero"/><path fill="#000000" d="M 32.164062 341.117188 L 34.253906 359.585938 L 42.25 357.390625 L 41.601562 340.660156 Z M 33.855469 360.636719 C 33.761719 360.636719 33.671875 360.609375 33.597656 360.554688 C 33.484375 360.480469 33.410156 360.363281 33.398438 360.226562 L 31.191406 340.730469 C 31.175781 340.605469 31.214844 340.476562 31.296875 340.378906 C 31.382812 340.28125 31.5 340.222656 31.628906 340.21875 L 42.019531 339.714844 C 42.144531 339.707031 42.261719 339.753906 42.355469 339.835938 C 42.445312 339.917969 42.5 340.035156 42.503906 340.15625 L 43.1875 357.722656 C 43.195312 357.9375 43.054688 358.128906 42.847656 358.183594 L 33.976562 360.621094 C 33.9375 360.632812 33.894531 360.636719 33.855469 360.636719 " fill-opacity="1" fill-rule="nonzero"/><path fill="#ffffff" d="M 33.019531 374.539062 L 47.054688 374.539062 C 48.953125 374.539062 50.410156 372.851562 50.132812 370.972656 C 49.664062 367.800781 48.140625 362.539062 43.5625 355.296875 C 43.0625 354.507812 42.191406 354.027344 41.253906 354.027344 L 36.988281 354.027344 C 36.25 354.027344 35.632812 354.585938 35.558594 355.316406 L 35.234375 358.398438 L 33.375 355.941406 C 33.375 355.941406 30.058594 362.9375 29.902344 371.367188 C 29.871094 373.109375 31.277344 374.539062 33.019531 374.539062 " fill-opacity="1" fill-rule="nonzero"/><path fill="#000000" d="M 33.484375 356.851562 C 32.664062 358.824219 30.488281 364.671875 30.363281 371.375 C 30.351562 372.09375 30.621094 372.769531 31.125 373.28125 C 31.628906 373.792969 32.300781 374.078125 33.019531 374.078125 L 47.054688 374.078125 C 47.828125 374.078125 48.558594 373.742188 49.0625 373.15625 C 49.566406 372.574219 49.789062 371.804688 49.675781 371.039062 C 49.21875 367.941406 47.71875 362.738281 43.171875 355.546875 C 42.753906 354.882812 42.039062 354.488281 41.253906 354.488281 L 36.988281 354.488281 C 36.484375 354.488281 36.066406 354.867188 36.015625 355.367188 L 35.691406 358.449219 C 35.671875 358.636719 35.539062 358.792969 35.359375 358.84375 C 35.175781 358.894531 34.980469 358.828125 34.867188 358.675781 Z M 47.054688 375 L 33.019531 375 C 32.050781 375 31.144531 374.617188 30.464844 373.929688 C 29.789062 373.238281 29.425781 372.324219 29.445312 371.359375 C 29.597656 362.925781 32.925781 355.816406 32.960938 355.746094 C 33.027344 355.601562 33.167969 355.5 33.328125 355.484375 C 33.492188 355.46875 33.644531 355.535156 33.742188 355.664062 L 34.898438 357.191406 L 35.097656 355.269531 C 35.199219 354.296875 36.011719 353.566406 36.988281 353.566406 L 41.253906 353.566406 C 42.355469 353.566406 43.363281 354.121094 43.953125 355.054688 C 48.585938 362.382812 50.117188 367.71875 50.589844 370.90625 C 50.742188 371.933594 50.441406 372.972656 49.761719 373.757812 C 49.082031 374.546875 48.09375 375 47.054688 375 " fill-opacity="1" fill-rule="nonzero"/><path fill="#000000" d="M 48.773438 371.644531 L 31.972656 371.644531 C 31.71875 371.644531 31.511719 371.4375 31.511719 371.179688 C 31.511719 370.925781 31.71875 370.722656 31.972656 370.722656 L 48.773438 370.722656 C 49.03125 370.722656 49.238281 370.925781 49.238281 371.179688 C 49.238281 371.4375 49.03125 371.644531 48.773438 371.644531 " fill-opacity="1" fill-rule="nonzero"/><path fill="#000000" d="M 64.964844 223.597656 C 64.597656 222.695312 63.855469 222.011719 62.925781 221.71875 C 57.792969 220.105469 39.902344 215.863281 21.480469 227.683594 C 20.613281 228.242188 20.054688 229.175781 19.980469 230.207031 C 19.316406 239.578125 16.832031 288.554688 32.3125 346.542969 L 42.742188 345.800781 L 44.867188 246.648438 C 44.867188 246.648438 60.3125 283 47.753906 340.847656 L 58.597656 342.851562 C 58.597656 342.851562 74.46875 321.964844 77.3125 290.042969 C 79.828125 261.808594 67.777344 230.453125 64.964844 223.597656 " fill-opacity="1" fill-rule="nonzero"/><path fill="#ffffff" d="M 48.667969 220.109375 C 41.066406 220.109375 31.464844 221.824219 21.730469 228.074219 C 20.984375 228.550781 20.503906 229.359375 20.441406 230.242188 C 19.785156 239.457031 17.304688 288.28125 32.660156 346.054688 L 42.289062 345.371094 L 44.40625 246.640625 C 44.410156 246.421875 44.566406 246.238281 44.777344 246.195312 C 44.992188 246.152344 45.207031 246.269531 45.289062 246.46875 C 45.328125 246.558594 49.203125 255.796875 51.476562 271.992188 C 53.558594 286.835938 54.691406 310.746094 48.304688 340.480469 L 58.398438 342.34375 C 60.097656 339.992188 74.210938 319.660156 76.851562 290.003906 C 79.375 261.6875 67.039062 229.863281 64.539062 223.773438 C 64.21875 222.996094 63.582031 222.40625 62.789062 222.15625 C 60.449219 221.421875 55.324219 220.109375 48.667969 220.109375 Z M 32.3125 347.003906 C 32.105469 347.003906 31.921875 346.867188 31.867188 346.664062 C 16.363281 288.585938 18.863281 239.4375 19.523438 230.175781 C 19.605469 229.003906 20.246094 227.929688 21.230469 227.296875 C 39.824219 215.363281 57.953125 219.671875 63.066406 221.277344 C 64.121094 221.609375 64.96875 222.390625 65.390625 223.421875 C 67.90625 229.546875 80.3125 261.554688 77.769531 290.085938 C 74.949219 321.769531 59.125 342.921875 58.964844 343.132812 C 58.859375 343.269531 58.683594 343.332031 58.515625 343.304688 L 47.667969 341.300781 C 47.546875 341.277344 47.4375 341.207031 47.367188 341.101562 C 47.300781 341 47.273438 340.871094 47.300781 340.75 C 53.773438 310.953125 52.648438 287.003906 50.570312 272.160156 C 48.957031 260.660156 46.539062 252.699219 45.273438 249.066406 L 43.199219 345.8125 C 43.195312 346.046875 43.011719 346.242188 42.773438 346.261719 L 32.34375 347.003906 C 32.335938 347.003906 32.324219 347.003906 32.3125 347.003906 " fill-opacity="1" fill-rule="nonzero"/><path fill="#ffffff" d="M 34.96875 300.511719 C 34.964844 300.511719 34.957031 300.511719 34.949219 300.511719 C 25.269531 300.09375 24.171875 286.898438 24.164062 286.765625 C 24.144531 286.511719 24.332031 286.289062 24.585938 286.273438 C 24.84375 286.25 25.0625 286.445312 25.082031 286.699219 C 25.089844 286.820312 26.128906 299.207031 34.988281 299.589844 C 35.242188 299.601562 35.441406 299.816406 35.429688 300.070312 C 35.417969 300.316406 35.214844 300.511719 34.96875 300.511719 " fill-opacity="1" fill-rule="nonzero"/><path fill="#ffffff" d="M 45.773438 256.199219 C 45.523438 256.199219 45.320312 256.003906 45.3125 255.75 L 44.945312 243.347656 C 44.941406 243.195312 45.015625 243.046875 45.140625 242.957031 L 51.640625 238.382812 C 51.851562 238.238281 52.136719 238.289062 52.285156 238.496094 C 52.429688 238.707031 52.378906 238.992188 52.171875 239.140625 L 45.875 243.570312 L 46.234375 255.726562 C 46.242188 255.980469 46.042969 256.191406 45.789062 256.199219 C 45.78125 256.199219 45.777344 256.199219 45.773438 256.199219 " fill-opacity="1" fill-rule="nonzero"/><path fill="#000000" d="M 40.875 135.382812 C 44.84375 131.972656 45.746094 131.503906 46.902344 129.550781 C 47.84375 127.953125 49.945312 124.394531 48.523438 120.625 C 47.292969 117.371094 43.894531 115.40625 40.773438 115.238281 C 37.96875 115.085938 35.917969 116.414062 34.835938 117.117188 C 34.363281 117.421875 30.191406 120.207031 29.367188 124.761719 C 29.144531 125.996094 29.3125 126.5625 28.746094 127.335938 C 27.480469 129.078125 25.183594 128.191406 23.597656 129.636719 C 21.601562 131.457031 22.527344 135.324219 22.601562 135.628906 C 23.644531 139.757812 28.101562 142.492188 31.734375 142.113281 C 33.832031 141.890625 33.605469 141.640625 40.875 135.382812 " fill-opacity="1" fill-rule="nonzero"/><path fill="#ffffff" d="M 29.949219 155.804688 C 31.867188 154.535156 32.984375 152.359375 32.933594 150.058594 L 32.714844 140.515625 C 32.648438 140.453125 32.585938 140.394531 32.519531 140.335938 C 32.519531 140.335938 28.699219 140.585938 28.144531 138.640625 C 27.585938 136.695312 30.289062 136.320312 30.289062 136.320312 C 30.289062 136.320312 27.738281 130.945312 34.335938 131.007812 C 36.109375 131.027344 36.742188 128.085938 39.652344 127.429688 C 39.652344 127.429688 41.089844 127.304688 42.546875 131.082031 L 45.738281 135.808594 L 44.144531 136.683594 C 44.539062 138.480469 44.707031 140.464844 44.464844 142.566406 C 44.394531 143.175781 43.980469 143.683594 43.398438 143.871094 C 42.921875 144.027344 42.273438 144.191406 41.511719 144.28125 L 42.027344 150.667969 C 42.25 153.464844 43.714844 156.011719 46.011719 157.621094 C 48.226562 159.179688 50.273438 160.277344 50.273438 160.277344 C 50.273438 160.277344 38.507812 161.890625 24.976562 158.796875 C 24.976562 158.796875 27.589844 157.367188 29.949219 155.804688 " fill-opacity="1" fill-rule="nonzero"/><path fill="#000000" d="M 26.257812 158.605469 C 36.394531 160.734375 45.425781 160.265625 48.800781 159.96875 C 47.996094 159.492188 46.890625 158.804688 45.746094 158 C 43.328125 156.300781 41.804688 153.640625 41.566406 150.707031 L 41.054688 144.316406 C 41.03125 144.070312 41.210938 143.851562 41.457031 143.820312 C 42.078125 143.75 42.683594 143.617188 43.257812 143.433594 C 43.664062 143.300781 43.957031 142.941406 44.007812 142.515625 C 44.222656 140.648438 44.117188 138.722656 43.695312 136.78125 C 43.652344 136.582031 43.746094 136.378906 43.921875 136.28125 L 45.074219 135.648438 L 42.164062 131.339844 C 42.144531 131.308594 42.128906 131.28125 42.117188 131.246094 C 40.953125 128.234375 39.871094 127.921875 39.691406 127.890625 C 38.324219 128.222656 37.496094 129.132812 36.769531 129.9375 C 36.054688 130.726562 35.378906 131.472656 34.351562 131.472656 C 34.308594 131.472656 34.265625 131.472656 34.222656 131.472656 C 32.386719 131.472656 31.175781 131.910156 30.625 132.777344 C 29.769531 134.117188 30.695312 136.105469 30.707031 136.125 C 30.769531 136.257812 30.765625 136.410156 30.695312 136.539062 C 30.625 136.667969 30.496094 136.757812 30.351562 136.777344 C 30.007812 136.828125 29.039062 137.078125 28.675781 137.636719 C 28.515625 137.878906 28.488281 138.167969 28.585938 138.515625 C 28.957031 139.8125 31.53125 139.9375 32.492188 139.875 C 32.617188 139.867188 32.746094 139.910156 32.835938 139.996094 L 33 140.148438 C 33.089844 140.234375 33.171875 140.378906 33.175781 140.503906 L 33.390625 150.046875 C 33.449219 152.53125 32.257812 154.828125 30.203125 156.1875 C 28.777344 157.136719 27.242188 158.039062 26.257812 158.605469 Z M 42.421875 161.152344 C 37.769531 161.152344 31.515625 160.765625 24.875 159.246094 C 24.6875 159.203125 24.546875 159.050781 24.519531 158.863281 C 24.496094 158.671875 24.589844 158.484375 24.757812 158.394531 C 24.78125 158.378906 27.378906 156.957031 29.695312 155.417969 C 31.484375 154.234375 32.519531 152.234375 32.472656 150.070312 L 32.257812 140.804688 C 31.285156 140.820312 28.257812 140.71875 27.703125 138.769531 C 27.527344 138.164062 27.597656 137.601562 27.902344 137.132812 C 28.328125 136.476562 29.125 136.144531 29.664062 135.992188 C 29.390625 135.171875 29.027344 133.566406 29.847656 132.28125 C 30.59375 131.109375 32.089844 130.515625 34.339844 130.550781 C 34.972656 130.550781 35.460938 130.007812 36.085938 129.316406 C 36.875 128.445312 37.859375 127.359375 39.550781 126.976562 C 39.570312 126.972656 39.589844 126.96875 39.613281 126.96875 C 39.90625 126.9375 41.457031 127.011719 42.957031 130.863281 L 46.121094 135.550781 C 46.195312 135.65625 46.21875 135.792969 46.1875 135.917969 C 46.15625 136.042969 46.074219 136.148438 45.960938 136.214844 L 44.664062 136.925781 C 45.050781 138.847656 45.136719 140.761719 44.921875 142.621094 C 44.832031 143.402344 44.292969 144.066406 43.542969 144.308594 C 43.046875 144.46875 42.53125 144.59375 42.007812 144.675781 L 42.484375 150.628906 C 42.699219 153.292969 44.082031 155.703125 46.273438 157.246094 C 48.445312 158.769531 50.472656 159.863281 50.492188 159.871094 C 50.667969 159.96875 50.761719 160.164062 50.726562 160.359375 C 50.691406 160.558594 50.535156 160.710938 50.335938 160.734375 C 50.277344 160.742188 47.195312 161.152344 42.421875 161.152344 " fill-opacity="1" fill-rule="nonzero"/><path fill="#ffffff" d="M 41.511719 144.28125 C 41.511719 144.28125 37.324219 144.425781 35.660156 142.148438 L 41.511719 144.28125 " fill-opacity="1" fill-rule="nonzero"/><path fill="#000000" d="M 41.335938 144.742188 C 40.460938 144.742188 36.882812 144.605469 35.289062 142.417969 C 35.140625 142.214844 35.183594 141.921875 35.390625 141.773438 C 35.597656 141.625 35.882812 141.667969 36.035156 141.875 C 37.535156 143.933594 41.457031 143.820312 41.496094 143.820312 C 41.757812 143.792969 41.964844 144.011719 41.972656 144.261719 C 41.980469 144.519531 41.78125 144.730469 41.527344 144.742188 C 41.507812 144.742188 41.441406 144.742188 41.335938 144.742188 " fill-opacity="1" fill-rule="nonzero"/><path fill="#000000" d="M 118.921875 213.101562 L 78.863281 213.101562 L 108.5625 167.386719 C 109.488281 165.960938 111.105469 165.09375 112.84375 165.09375 L 145.355469 165.09375 C 147.421875 165.09375 148.671875 167.304688 147.574219 169.003906 L 118.921875 213.101562 " fill-opacity="1" fill-rule="nonzero"/><path fill="#ffffff" d="M 127.46875 181.121094 C 126.167969 183.128906 123.367188 184.75 121.214844 184.75 C 119.0625 184.75 118.375 183.128906 119.675781 181.121094 C 120.980469 179.121094 123.777344 177.496094 125.929688 177.496094 C 128.082031 177.496094 128.769531 179.121094 127.46875 181.121094 " fill-opacity="1" fill-rule="nonzero"/><path fill="#000000" d="M 114.925781 216.917969 L 48.230469 216.917969 C 45.945312 216.917969 44.089844 215.066406 44.089844 212.777344 L 119.066406 212.777344 C 119.066406 215.066406 117.214844 216.917969 114.925781 216.917969 " fill-opacity="1" fill-rule="nonzero"/><path fill="#ffffff" d="M 116.839844 213.605469 L 82.433594 213.605469 C 82.179688 213.605469 81.972656 213.398438 81.972656 213.144531 C 81.972656 212.890625 82.179688 212.683594 82.433594 212.683594 L 116.839844 212.683594 C 117.09375 212.683594 117.300781 212.890625 117.300781 213.144531 C 117.300781 213.398438 117.09375 213.605469 116.839844 213.605469 " fill-opacity="1" fill-rule="nonzero"/><path fill="#000000" d="M 348.625 322.390625 C 348.457031 322.390625 348.292969 322.402344 348.121094 322.425781 C 345.953125 322.703125 344.414062 324.695312 344.691406 326.867188 C 344.96875 329.039062 346.960938 330.582031 349.128906 330.304688 C 350.175781 330.171875 351.113281 329.632812 351.761719 328.796875 C 352.410156 327.957031 352.691406 326.914062 352.554688 325.863281 C 352.300781 323.859375 350.589844 322.390625 348.625 322.390625 Z M 348.621094 331.257812 C 346.199219 331.257812 344.089844 329.449219 343.777344 326.984375 C 343.4375 324.304688 345.332031 321.851562 348.007812 321.507812 C 350.675781 321.167969 353.128906 323.070312 353.472656 325.746094 C 353.636719 327.042969 353.289062 328.324219 352.488281 329.359375 C 351.6875 330.394531 350.535156 331.054688 349.242188 331.21875 C 349.035156 331.242188 348.828125 331.257812 348.621094 331.257812 " fill-opacity="1" fill-rule="nonzero"/><path fill="#000000" d="M 262.347656 20.851562 C 262.328125 20.851562 262.3125 20.851562 262.292969 20.847656 L 260.429688 20.632812 C 260.179688 20.601562 259.992188 20.375 260.023438 20.121094 C 260.054688 19.867188 260.285156 19.6875 260.535156 19.714844 L 262.398438 19.933594 C 262.652344 19.960938 262.832031 20.191406 262.804688 20.441406 C 262.777344 20.679688 262.578125 20.851562 262.347656 20.851562 " fill-opacity="1" fill-rule="nonzero"/><path fill="#000000" d="M 253.421875 19.816406 C 253.40625 19.816406 253.386719 19.816406 253.367188 19.816406 L 251.503906 19.597656 C 251.25 19.570312 251.070312 19.34375 251.101562 19.089844 C 251.128906 18.835938 251.359375 18.652344 251.609375 18.683594 L 253.472656 18.898438 C 253.726562 18.929688 253.910156 19.15625 253.878906 19.410156 C 253.851562 19.644531 253.652344 19.816406 253.421875 19.816406 " fill-opacity="1" fill-rule="nonzero"/><path fill="#000000" d="M 256.355469 25.644531 C 256.339844 25.644531 256.316406 25.644531 256.300781 25.644531 C 256.050781 25.613281 255.867188 25.386719 255.894531 25.136719 L 256.101562 23.261719 C 256.128906 23.007812 256.359375 22.828125 256.609375 22.855469 C 256.863281 22.882812 257.046875 23.109375 257.019531 23.363281 L 256.8125 25.234375 C 256.785156 25.472656 256.582031 25.644531 256.355469 25.644531 " fill-opacity="1" fill-rule="nonzero"/><path fill="#000000" d="M 257.347656 16.675781 C 257.332031 16.675781 257.3125 16.675781 257.296875 16.675781 C 257.042969 16.644531 256.863281 16.417969 256.886719 16.164062 L 257.097656 14.289062 C 257.125 14.035156 257.351562 13.859375 257.605469 13.882812 C 257.859375 13.910156 258.039062 14.140625 258.015625 14.390625 L 257.804688 16.265625 C 257.78125 16.5 257.578125 16.675781 257.347656 16.675781 " fill-opacity="1" fill-rule="nonzero"/><path fill="#000000" d="M 59.21875 86.59375 C 59.078125 86.59375 58.941406 86.535156 58.851562 86.414062 C 58.695312 86.214844 58.734375 85.925781 58.933594 85.769531 L 60.421875 84.625 C 60.625 84.46875 60.914062 84.507812 61.070312 84.710938 C 61.222656 84.910156 61.1875 85.199219 60.984375 85.355469 L 59.496094 86.5 C 59.414062 86.566406 59.316406 86.59375 59.21875 86.59375 " fill-opacity="1" fill-rule="nonzero"/><path fill="#000000" d="M 52.09375 92.082031 C 51.957031 92.082031 51.820312 92.019531 51.730469 91.902344 C 51.574219 91.699219 51.613281 91.410156 51.8125 91.253906 L 53.300781 90.109375 C 53.503906 89.953125 53.792969 89.992188 53.945312 90.195312 C 54.101562 90.394531 54.0625 90.6875 53.863281 90.839844 L 52.375 91.984375 C 52.292969 92.050781 52.191406 92.082031 52.09375 92.082031 " fill-opacity="1" fill-rule="nonzero"/><path fill="#000000" d="M 59.742188 93.074219 C 59.605469 93.074219 59.46875 93.015625 59.378906 92.894531 L 58.222656 91.410156 C 58.066406 91.207031 58.105469 90.917969 58.304688 90.761719 C 58.503906 90.605469 58.796875 90.640625 58.953125 90.84375 L 60.105469 92.332031 C 60.261719 92.53125 60.226562 92.824219 60.027344 92.980469 C 59.941406 93.042969 59.84375 93.074219 59.742188 93.074219 " fill-opacity="1" fill-rule="nonzero"/><path fill="#000000" d="M 54.210938 85.945312 C 54.074219 85.945312 53.9375 85.882812 53.847656 85.765625 L 52.691406 84.277344 C 52.535156 84.078125 52.570312 83.789062 52.773438 83.632812 C 52.972656 83.476562 53.261719 83.507812 53.417969 83.714844 L 54.574219 85.199219 C 54.730469 85.402344 54.695312 85.691406 54.492188 85.847656 C 54.410156 85.914062 54.308594 85.945312 54.210938 85.945312 " fill-opacity="1" fill-rule="nonzero"/><path fill="#000000" d="M 69.035156 70.269531 C 68.941406 70.269531 68.847656 70.242188 68.769531 70.1875 C 68.5625 70.035156 68.511719 69.75 68.660156 69.539062 C 78.917969 55.113281 92.640625 43.308594 109.449219 34.460938 C 122.882812 27.386719 138.308594 22.171875 155.289062 18.964844 C 184.195312 13.503906 207.933594 15.789062 208.167969 15.8125 C 208.421875 15.839844 208.609375 16.0625 208.582031 16.316406 C 208.558594 16.570312 208.332031 16.753906 208.078125 16.730469 C 207.84375 16.707031 184.214844 14.4375 155.4375 19.875 C 128.910156 24.890625 92.453125 37.667969 69.410156 70.074219 C 69.320312 70.203125 69.179688 70.269531 69.035156 70.269531 " fill-opacity="1" fill-rule="nonzero"/><path fill="#000000" d="M 106.855469 24.691406 C 106.703125 24.691406 106.550781 24.613281 106.464844 24.476562 C 106.332031 24.257812 106.398438 23.972656 106.613281 23.839844 C 106.75 23.753906 120.558594 15.289062 143.0625 9.484375 C 163.824219 4.132812 196.464844 0.0078125 234.054688 10.757812 C 234.300781 10.828125 234.441406 11.082031 234.371094 11.324219 C 234.304688 11.570312 234.046875 11.710938 233.804688 11.644531 C 196.410156 0.949219 163.941406 5.050781 143.289062 10.378906 C 120.921875 16.148438 107.234375 24.539062 107.097656 24.625 C 107.023438 24.671875 106.941406 24.691406 106.855469 24.691406 " fill-opacity="1" fill-rule="nonzero"/><path fill="#000000" d="M 98.871094 26.066406 C 98.78125 26.066406 98.691406 26.070312 98.597656 26.085938 C 97.421875 26.234375 96.589844 27.316406 96.738281 28.496094 C 96.8125 29.0625 97.101562 29.570312 97.554688 29.925781 C 98.011719 30.277344 98.574219 30.433594 99.144531 30.359375 C 99.714844 30.285156 100.21875 29.996094 100.574219 29.542969 C 100.921875 29.085938 101.078125 28.519531 101.003906 27.949219 C 100.867188 26.863281 99.9375 26.066406 98.871094 26.066406 Z M 98.863281 31.296875 C 98.1875 31.296875 97.535156 31.078125 96.992188 30.65625 C 96.34375 30.152344 95.929688 29.425781 95.824219 28.609375 C 95.609375 26.929688 96.800781 25.382812 98.480469 25.167969 C 100.160156 24.957031 101.703125 26.148438 101.917969 27.832031 C 102.023438 28.644531 101.804688 29.453125 101.300781 30.105469 C 100.800781 30.753906 100.074219 31.167969 99.261719 31.273438 C 99.128906 31.289062 98.996094 31.296875 98.863281 31.296875 " fill-opacity="1" fill-rule="nonzero"/><path fill="#000000" d="M 307.75 349.042969 C 307.652344 349.042969 307.554688 349.011719 307.46875 348.945312 L 305.824219 347.671875 C 305.625 347.515625 305.585938 347.222656 305.742188 347.023438 C 305.894531 346.820312 306.183594 346.785156 306.390625 346.941406 L 308.035156 348.214844 C 308.234375 348.371094 308.273438 348.660156 308.117188 348.863281 C 308.023438 348.980469 307.890625 349.042969 307.75 349.042969 " fill-opacity="1" fill-rule="nonzero"/><path fill="#000000" d="M 313.511719 353.507812 C 313.414062 353.507812 313.3125 353.472656 313.226562 353.410156 L 311.582031 352.132812 C 311.382812 351.976562 311.34375 351.6875 311.5 351.488281 C 311.65625 351.285156 311.945312 351.246094 312.148438 351.40625 L 313.792969 352.679688 C 313.992188 352.835938 314.03125 353.125 313.875 353.328125 C 313.785156 353.445312 313.648438 353.507812 313.511719 353.507812 " fill-opacity="1" fill-rule="nonzero"/><path fill="#000000" d="M 306.945312 354.34375 C 306.84375 354.34375 306.746094 354.3125 306.660156 354.246094 C 306.460938 354.09375 306.425781 353.800781 306.582031 353.601562 L 307.851562 351.953125 C 308.007812 351.75 308.296875 351.714844 308.5 351.871094 C 308.699219 352.027344 308.738281 352.316406 308.582031 352.515625 L 307.308594 354.164062 C 307.21875 354.28125 307.082031 354.34375 306.945312 354.34375 " fill-opacity="1" fill-rule="nonzero"/><path fill="#000000" d="M 311.402344 348.574219 C 311.300781 348.574219 311.203125 348.542969 311.121094 348.480469 C 310.917969 348.324219 310.878906 348.035156 311.035156 347.832031 L 312.308594 346.183594 C 312.464844 345.984375 312.753906 345.945312 312.957031 346.101562 C 313.15625 346.257812 313.195312 346.546875 313.039062 346.746094 L 311.765625 348.394531 C 311.671875 348.511719 311.539062 348.574219 311.402344 348.574219 " fill-opacity="1" fill-rule="nonzero"/></svg>